<svg height="512pt" viewBox="-37 0 512 512.0006" width="512pt" xmlns="http://www.w3.org/2000/svg"><path d="m284.382812 483.65625h-154.683593c-4.144531 0-7.5-3.359375-7.5-7.5s3.355469-7.5 7.5-7.5h154.683593c4.140626 0 7.5 3.359375 7.5 7.5s-3.359374 7.5-7.5 7.5zm0 0" fill="#c9a07d"/><path d="m155.933594 385.882812h-46.285156l-24.714844 112.03125c-1.597656 7.234376 3.910156 14.085938 11.316406 14.085938h16.410156c9.023438 0 16.835938-6.273438 18.777344-15.085938zm0 0" fill="#ddaf89"/><path d="m258.144531 385.882812h46.285157l24.71875 112.03125c1.59375 7.234376-3.910157 14.085938-11.316407 14.085938h-16.410156c-9.027344 0-16.835937-6.273438-18.78125-15.085938zm0 0" fill="#ddaf89"/><path d="m99.726562 430.851562c13.402344 7.191407 27.601563 13.074219 42.425782 17.492188l13.78125-62.464844h-46.285156zm0 0" fill="#c9a07d"/><path d="m304.429688 385.882812h-46.285157l13.78125 62.460938c14.828125-4.414062 29.027344-10.300781 42.425781-17.492188zm0 0" fill="#c9a07d"/><path d="m207.039062 437.179688c-114.160156 0-207.039062-92.875-207.039062-207.039063 0-114.160156 92.878906-207.039063 207.039062-207.039063 114.164063 0 207.039063 92.878907 207.039063 207.039063s-92.875 207.039063-207.039063 207.039063zm0 0" fill="#eeeeed"/><path d="m276.972656 362.902344c-104.636718 0-189.765625-85.128906-189.765625-189.765625 0-56.75 25.046875-107.753907 64.65625-142.558594-87.460937 24.210937-151.863281 104.5-151.863281 199.5625 0 114.160156 92.878906 207.039063 207.039062 207.039063 80.199219 0 149.890626-45.835938 184.261719-112.6875-31.820312 24.09375-71.429687 38.410156-114.328125 38.410156zm0 0" fill="#dfdfdd"/><path d="m207.039062 368.507812c-76.296874 0-138.367187-62.070312-138.367187-138.367187s62.070313-138.367187 138.367187-138.367187c76.296876 0 138.367188 62.070312 138.367188 138.367187s-62.070312 138.367187-138.367188 138.367187zm0 0" fill="#80bbe6"/><path d="m276.734375 230.140625c0 38.492187-31.203125 69.695313-69.695313 69.695313-38.492187 0-69.695312-31.203126-69.695312-69.695313s31.203125-69.695313 69.695312-69.695313c38.492188 0 69.695313 31.203126 69.695313 69.695313zm0 0" fill="#f8e47c"/><path d="m87.207031 173.136719c0-4.324219.160157-8.613281.445313-12.867188-12.054688 20.519531-18.980469 44.398438-18.980469 69.871094 0 76.296875 62.070313 138.367187 138.367187 138.367187 15.542969 0 30.492188-2.578124 44.449219-7.324218-92.628906-12.488282-164.28125-92.050782-164.28125-188.046875zm0 0" fill="#76acd4"/><path d="m318.4375 94.480469c-17.972656-27.140625.371094-70.496094 17.878906-88.003907 17.511719-17.507812 35.0625 2.589844 35.0625 35.0625zm0 0" fill="#eb8d9a"/><path d="m342.699219 118.742188c27.140625 17.972656 70.496093-.371094 88.003906-17.878907 17.511719-17.511719-2.585937-35.0625-35.0625-35.0625zm0 0" fill="#eb8d9a"/><path d="m386.011719 26.90625-191.101563 191.101562c-6.703125 6.703126-6.703125 17.5625 0 24.265626 6.699219 6.699218 17.558594 6.699218 24.261719 0l191.101563-191.105469c4.8125-4.8125 4.8125-12.613281 0-17.425781l-6.835938-6.835938c-4.8125-4.8125-12.613281-4.8125-17.425781 0zm0 0" fill="#c9a07d"/><path d="m386.011719 26.90625-44.703125 44.703125 24.261718 24.261719 44.703126-44.703125c4.8125-4.8125 4.8125-12.613281 0-17.425781l-6.835938-6.835938c-4.808594-4.8125-12.613281-4.8125-17.425781 0zm0 0" fill="#495059"/><path d="m312.582031 80.914062c1.179688 4.804688 3.082031 9.378907 5.855469 13.566407l52.941406-52.941407c0-6.382812-.6875-12.28125-1.910156-17.515624zm0 0" fill="#d67c88"/><path d="m356.265625 124.597656c-4.804687-1.179687-9.378906-3.082031-13.566406-5.855468l52.941406-52.941407c6.382813 0 12.28125.6875 17.515625 1.910157zm0 0" fill="#d67c88"/><path d="m177.136719 409.945312c0-7.6875-7.828125-13.921874-17.484375-13.921874s-17.484375 6.234374-17.484375 13.921874c0 7.691407 7.828125 13.925782 17.484375 13.925782s17.484375-6.234375 17.484375-13.925782zm0 0" fill="#eb8d9a"/><path d="m271.914062 409.945312c0-7.6875-7.828124-13.921874-17.488281-13.921874-9.65625 0-17.484375 6.234374-17.484375 13.921874 0 7.691407 7.828125 13.925782 17.484375 13.925782 9.660157 0 17.488281-6.234375 17.488281-13.925782zm0 0" fill="#eb8d9a"/><g fill="#495059"><path d="m169.84375 403.554688c-4.144531 0-7.5-3.355469-7.5-7.5v-6.175782c0-4.140625 3.355469-7.5 7.5-7.5 4.140625 0 7.5 3.359375 7.5 7.5v6.175782c0 4.144531-3.359375 7.5-7.5 7.5zm0 0"/><path d="m244.238281 403.554688c-4.144531 0-7.5-3.355469-7.5-7.5v-6.175782c0-4.140625 3.355469-7.5 7.5-7.5 4.140625 0 7.5 3.359375 7.5 7.5v6.175782c0 4.144531-3.359375 7.5-7.5 7.5zm0 0"/><path d="m207.039062 408.296875c-5.925781 0-11.5625-2.566406-15.460937-7.039063-2.722656-3.125-2.398437-7.859374.726563-10.582031 3.121093-2.722656 7.859374-2.398437 10.582031.726563 1.066406 1.222656 2.539062 1.894531 4.152343 1.894531 1.589844 0 3.101563-.691406 4.152344-1.894531 2.722656-3.125 7.457032-3.449219 10.582032-.726563 3.121093 2.722657 3.449218 7.457031.726562 10.582031-3.898438 4.472657-9.535156 7.039063-15.460938 7.039063zm0 0"/></g></svg>