<svg height="511pt" viewBox="1 -75 511.99897 511" width="511pt" xmlns="http://www.w3.org/2000/svg"><path d="m82.046875 185.085938c-39.535156-14.960938-66.386719-55.257813-67.511719-56.964844l27.621094-18.207032c.21875.328126 22.226562 33.117188 51.59375 44.230469zm0 0" fill="#ffb258"/><path d="m461.421875 118.9375c-25.445313-69.128906-91.886719-118.4375-169.84375-118.4375-77.960937 0-144.398437 49.308594-169.84375 118.433594l169.84375 30.09375zm0 0" fill="#dadadc"/><path d="m291.578125 175.441406-171.617187 38.4375v62.328125l17 55.085938c5.507812 17.851562 22.007812 30.027343 40.691406 30.027343h227.847656c18.683594 0 35.183594-12.175781 40.691406-30.027343l17-55.085938v-56.027343zm0 0" fill="#ff6881"/><path d="m119.960938 213.878906v62.328125l7.949218 25.753907h46.035156c28.089844 0 53.933594-14.101563 69.132813-37.722657l21.507813-33.421875c1.230468-1.914062 3.324218-3.058594 5.605468-3.058594h42.78125c2.277344 0 4.371094 1.144532 5.605469 3.058594l21.503906 33.421875c15.199219 23.621094 41.042969 37.722657 69.132813 37.722657h46.027344l7.949218-25.753907v-56.027343l-171.613281-44.738282zm0 0" fill="#de4b64"/><g fill="#324761"><path d="m270.605469 58.679688-9.4375-17.324219c-2.019531-3.707031-6.34375-5.503907-10.410157-4.355469-6.851562 1.929688-13.5 4.332031-19.914062 7.175781-4.84375 2.148438-6.863281 7.933594-4.332031 12.585938l9.148437 16.796875c2.230469 4.097656 7.222656 5.90625 11.511719 4.066406 5.671875-2.433594 11.589844-4.414062 17.699219-5.894531 5.730468-1.386719 8.554687-7.871094 5.734375-13.050781zm0 0"/><path d="m198.3125 98.949219-18.21875-7.582031c-3.894531-1.621094-8.386719-.316407-10.832031 3.121093-4.085938 5.734375-7.777344 11.769531-11.03125 18.0625-2.441407 4.710938-.394531 10.5 4.503906 12.539063l17.761719 7.394531c4.324218 1.800781 9.257812-.035156 11.460937-4.167969 2.929688-5.484375 6.300781-10.699218 10.058594-15.59375 3.597656-4.683594 1.75-11.503906-3.703125-13.773437zm0 0"/><path d="m352.3125 44.175781c-6.414062-2.839843-13.066406-5.246093-19.917969-7.175781-4.066406-1.144531-8.386719.648438-10.40625 4.359375l-9.4375 17.324219c-2.824219 5.179687.003907 11.660156 5.734375 13.050781 6.105469 1.480469 12.019532 3.460937 17.691406 5.894531 4.292969 1.839844 9.285157.03125 11.519532-4.070312l9.144531-16.796875c2.535156-4.652344.511719-10.4375-4.328125-12.585938zm0 0"/><path d="m424.929688 112.554688c-3.261719-6.296876-6.949219-12.332032-11.035157-18.066407-2.449219-3.4375-6.9375-4.742187-10.832031-3.121093l-18.210938 7.582031c-5.453124 2.269531-7.300781 9.089843-3.703124 13.773437 3.761718 4.894532 7.128906 10.109375 10.058593 15.59375 2.207031 4.132813 7.140625 5.96875 11.464844 4.167969l17.753906-7.394531c4.898438-2.039063 6.941407-7.824219 4.503907-12.535156zm0 0"/></g><path d="m475.925781 118.9375h-368.695312c-19.921875 0-36.074219 16.152344-36.074219 36.074219v72.398437c0 26.945313 21.851562 48.796875 48.804688 48.796875h53.984374c19.203126 0 37.085938-9.757812 47.476563-25.902343l21.503906-33.425782c5.96875-9.269531 16.238281-14.875 27.265625-14.875h42.78125c11.027344 0 21.296875 5.605469 27.265625 14.875l21.503907 33.425782c10.390624 16.144531 28.273437 25.902343 47.472656 25.902343h53.988281c26.949219 0 48.796875-21.847656 48.796875-48.796875v-72.398437c0-19.921875-16.152344-36.074219-36.074219-36.074219zm0 0" fill="#ececee"/><path d="m122.160156 155.910156h84.367188c12.214844 0 19.511718 13.605469 12.757812 23.78125l-28.957031 49.753906c-4.128906 6.214844-11.09375 9.953126-18.554687 9.953126h-42.65625c-12.296876 0-22.269532-9.972657-22.269532-22.269532v-45.90625c0-8.457031 6.855469-15.3125 15.3125-15.3125zm0 0" fill="#485b73"/><path d="m460.996094 155.910156h-84.367188c-12.214844 0-19.511718 13.605469-12.757812 23.78125l28.957031 49.753906c4.128906 6.214844 11.09375 9.953126 18.554687 9.953126h42.652344c12.300782 0 22.273438-9.972657 22.273438-22.269532v-45.90625c0-8.457031-6.855469-15.3125-15.3125-15.3125zm0 0" fill="#485b73"/><path d="m214.035156 321.652344c-4.265625 0-7.726562-3.460938-7.726562-7.726563v-14.035156c0-4.265625 3.460937-7.726563 7.726562-7.726563 4.269532 0 7.726563 3.460938 7.726563 7.726563v14.035156c0 4.265625-3.457031 7.726563-7.726563 7.726563zm0 0" fill="#3a3c4c"/><path d="m369.117188 321.652344c-4.265626 0-7.722657-3.460938-7.722657-7.726563v-14.035156c0-4.265625 3.457031-7.726563 7.722657-7.726563 4.269531 0 7.726562 3.460938 7.726562 7.726563v14.035156c0 4.265625-3.457031 7.726563-7.726562 7.726563zm0 0" fill="#3a3c4c"/><path d="m291.578125 329.144531c-9.691406 0-18.785156-4.050781-24.957031-11.109375-2.808594-3.214844-2.480469-8.09375.734375-10.902344 3.210937-2.808593 8.09375-2.480468 10.902343.730469 3.234376 3.703125 8.089844 5.828125 13.320313 5.828125 5.226563 0 10.082031-2.125 13.320313-5.828125 2.808593-3.210937 7.6875-3.539062 10.902343-.730469 3.214844 2.808594 3.539063 7.6875.730469 10.902344-6.167969 7.058594-15.265625 11.109375-24.953125 11.109375zm0 0" fill="#3a3c4c"/><path d="m56.710938 119.03125c0 15.660156-12.695313 28.351562-28.355469 28.351562-15.660157 0-28.355469-12.691406-28.355469-28.351562s12.695312-28.355469 28.355469-28.355469c15.660156 0 28.355469 12.695313 28.355469 28.355469zm0 0" fill="#ffe675"/></svg>