<svg height="464pt" viewBox="0 0 464 464" width="464pt" xmlns="http://www.w3.org/2000/svg"><path d="m398.960938 88c-3.625-14.132812-16.371094-24.011719-30.960938-24h-336c-17.671875 0-32 14.328125-32 32v208h400v-208c.023438-2.703125-.324219-5.394531-1.039062-8zm0 0" fill="#5aaae7"/><path d="m408 152h32v24h-32zm0 0" fill="#898890"/><path d="m248 152h32v24h-32zm0 0" fill="#898890"/><path d="m408 64h32v24h-32zm0 0" fill="#898890"/><path d="m248 64h32v24h-32zm0 0" fill="#898890"/><path d="m456 88h-224c-4.417969 0-8 3.582031-8 8v48c0 4.417969 3.582031 8 8 8h224c4.417969 0 8-3.582031 8-8v-48c0-4.417969-3.582031-8-8-8zm0 0" fill="#00ccb3"/><path d="m224 56v-48c0-4.417969 3.582031-8 8-8h224c4.417969 0 8 3.582031 8 8v48c0 4.417969-3.582031 8-8 8h-224c-4.417969 0-8-3.582031-8-8zm0 0" fill="#00ccb3"/><path d="m296 440v16c0 4.417969-3.582031 8-8 8h-176c-4.417969 0-8-3.582031-8-8v-16c0-4.417969 3.582031-8 8-8h176c4.417969 0 8 3.582031 8 8zm0 0" fill="#787680"/><path d="m256 368 8 64h-128l8-64zm0 0" fill="#898890"/><path d="m400 304v32c0 17.671875-14.328125 32-32 32h-336c-17.671875 0-32-14.328125-32-32v-32zm0 0" fill="#acabb1"/><path d="m344 328h16v16h-16zm0 0" fill="#898890"/><g fill="#009986"><path d="m248 112h16v16h-16zm0 0"/><path d="m280 112h16v16h-16zm0 0"/><path d="m312 112h16v16h-16zm0 0"/><path d="m360 104h16v32h-16zm0 0"/><path d="m392 104h16v32h-16zm0 0"/><path d="m424 104h16v32h-16zm0 0"/><path d="m248 24h16v16h-16zm0 0"/><path d="m280 24h16v16h-16zm0 0"/><path d="m312 24h16v16h-16zm0 0"/><path d="m360 16h16v32h-16zm0 0"/><path d="m392 16h16v32h-16zm0 0"/><path d="m424 16h16v32h-16zm0 0"/></g><path d="m66.34375 165.65625-24-24c-3.121094-3.125-3.121094-8.1875 0-11.3125l24-24 11.3125 11.3125-18.34375 18.34375 18.34375 18.34375zm0 0" fill="#1e81ce"/><path d="m88.511719 165.195312 23.992187-64.003906 14.984375 5.617188-23.992187 64zm0 0" fill="#1e81ce"/><path d="m149.65625 165.65625-11.3125-11.3125 18.34375-18.34375-18.34375-18.34375 11.3125-11.3125 24 24c3.121094 3.125 3.121094 8.1875 0 11.3125zm0 0" fill="#1e81ce"/><path d="m40 200h32v16h-32zm0 0" fill="#3d9ae2"/><path d="m88 200h80v16h-80zm0 0" fill="#3d9ae2"/><path d="m56 232h32v16h-32zm0 0" fill="#3d9ae2"/><path d="m104 232h80v16h-80zm0 0" fill="#3d9ae2"/><path d="m200 232h32v16h-32zm0 0" fill="#3d9ae2"/><path d="m248 232h64v16h-64zm0 0" fill="#3d9ae2"/></svg>